<?xml version="1.0" encoding="UTF-8"?>
<svg version="1.1" xmlns="http://www.w3.org/2000/svg" width="512" height="512">
<path d="M0 0 C5.30259853 1.89720928 9.79184704 5.34349401 14.35644531 8.56616211 C15.54734129 9.38641003 16.73950775 10.20481606 17.93286133 11.02148438 C20.42243951 12.7287887 22.90491272 14.44574535 25.38232422 16.1706543 C28.94209758 18.64577935 32.52513989 21.08494309 36.11816406 23.51147461 C36.68953094 23.89746323 37.26089783 24.28345184 37.84957886 24.68113708 C39.00275376 25.46011227 40.15596215 26.2390379 41.3092041 27.01791382 C44.2337152 28.99583285 47.15245317 30.98222551 50.07128906 32.96850586 C56.49649853 37.33991018 62.92626946 41.70455905 69.35745239 46.06716919 C72.27398403 48.04570444 75.19019863 50.02470688 78.10644531 52.00366211 C79.27311046 52.79533101 80.43977713 53.58699768 81.60644531 54.37866211 C172.60644532 116.12866211 172.60644532 116.12866211 174.35630798 117.31607056 C175.52343039 118.10804538 176.69055482 118.90001722 177.85768127 119.69198608 C180.76739174 121.66641345 183.67706741 123.64089206 186.58666992 125.61547852 C193.14040568 130.06304399 199.69485789 134.50954874 206.25085449 138.95378113 C209.22927427 140.97309917 212.20676747 142.99375594 215.18212891 145.01757812 C216.32223957 145.79292569 217.46237591 146.56823549 218.60253906 147.34350586 C219.15445923 147.71880936 219.70637939 148.09411285 220.27502441 148.48078918 C223.84330518 150.90418138 227.4260525 153.30482515 231.01660156 155.69506836 C231.90597412 156.2914209 232.79534668 156.88777344 233.71166992 157.50219727 C235.33647213 158.59127601 236.96588445 159.67352327 238.60083008 160.74731445 C239.30651123 161.22249512 240.01219238 161.69767578 240.73925781 162.18725586 C241.34656738 162.59000732 241.95387695 162.99275879 242.57958984 163.40771484 C245.1917975 165.71041724 246.03151987 167.96281205 246.35829431 171.41196865 C246.35916109 172.43450318 246.36002786 173.45703771 246.36092091 174.51055813 C246.3667531 175.69282653 246.37258529 176.87509494 246.37859422 178.09318966 C246.3748149 179.39326822 246.37103557 180.69334678 246.36714172 182.03282166 C246.37016153 183.42689502 246.37405015 184.82096673 246.37873429 186.2150355 C246.38904509 190.05010543 246.38682466 193.8850822 246.3825537 197.72015989 C246.38009206 201.85452184 246.38909361 205.98886104 246.39659119 210.12321472 C246.40935577 218.22438324 246.4111297 226.32551864 246.40879092 234.42669552 C246.40700961 241.0097997 246.40875338 247.59289381 246.41301537 254.17599678 C246.41361055 255.11208331 246.41420574 256.04816983 246.41481897 257.01262261 C246.41603069 258.91413382 246.41724482 260.81564503 246.41846135 262.71715624 C246.4293436 280.55885242 246.42717111 298.40052971 246.4210765 316.24222697 C246.41590638 332.57306448 246.42716407 348.90384236 246.44617472 365.23466807 C246.46553503 381.99403841 246.47381232 398.75338052 246.47005147 415.51276213 C246.46813672 424.92554503 246.47065359 434.33827716 246.48476601 443.75105095 C246.49665776 451.76392676 246.49810953 459.77672055 246.48597584 467.78959744 C246.48007168 471.87931114 246.47902996 475.96887465 246.49097824 480.05857849 C246.50178489 483.80094902 246.49879641 487.54304303 246.48471656 491.28540034 C246.48079237 493.28373607 246.49165918 495.28208383 246.50301343 497.28039116 C246.49580689 498.46526731 246.48860035 499.65014346 246.48117542 500.87092495 C246.48123044 501.89362183 246.48128545 502.91631871 246.48134214 503.97000641 C246.0429081 507.22543382 245.03229445 509.11444891 243.10644531 511.75366211 C239.99491228 513.30942863 236.69681231 512.89443559 233.28148079 512.88788319 C232.04899242 512.89141153 232.04899242 512.89141153 230.79160529 512.89501116 C228.00852831 512.90172538 225.22549775 512.90124221 222.44241333 512.90083313 C220.43888428 512.90413024 218.4353559 512.90785548 216.43182838 512.91197461 C210.90290366 512.92201994 205.3739898 512.92571545 199.84505725 512.92836392 C193.89130867 512.93225941 187.93756875 512.94183816 181.98382568 512.95057678 C168.2754377 512.96942592 154.56704815 512.97959977 140.85865077 512.98803746 C134.08803618 512.99224141 127.31742248 512.9974637 120.54680864 513.00272199 C97.38115351 513.02061236 74.21549812 513.03560997 51.04983711 513.04304218 C49.59510723 513.04351694 48.14037736 513.04399283 46.68564748 513.04446984 C45.96421652 513.04470622 45.24278556 513.0449426 44.49949305 513.04518614 C40.84422583 513.04638736 37.18895862 513.0476028 33.53369141 513.04882812 C32.4455843 513.04918835 32.4455843 513.04918835 31.33549522 513.04955585 C7.80491694 513.05745251 -15.72561099 513.0808918 -39.25616728 513.11338407 C-64.1202884 513.14765528 -88.98438004 513.16739075 -113.84852517 513.17068642 C-116.5761726 513.17110398 -119.30382002 513.17158355 -122.03146744 513.1721096 C-122.70311588 513.1722328 -123.37476432 513.17235599 -124.06676574 513.17248291 C-134.89100954 513.17481819 -145.71519501 513.19049622 -156.539418 513.21095145 C-167.41199623 513.23117267 -178.28450078 513.23636998 -189.15709411 513.22718082 C-195.05120101 513.22261741 -200.94511788 513.22464026 -206.83919907 513.24394226 C-212.22910288 513.26144148 -217.61867617 513.26068485 -223.00858285 513.24504497 C-224.96417073 513.24264863 -226.91978072 513.24709603 -228.87533461 513.25887362 C-231.52293441 513.27383843 -234.16933954 513.26442805 -236.81690788 513.24864674 C-237.58554002 513.25886894 -238.35417215 513.26909115 -239.14609617 513.27962312 C-242.65290048 513.23364241 -244.53126674 513.03638763 -247.33584511 510.84772557 C-249.88116791 507.4259918 -250.01982637 505.47566863 -250.02498245 501.24286175 C-250.0288236 500.06457544 -250.03266474 498.88628913 -250.03662229 497.67229718 C-250.0357558 496.36639294 -250.03488932 495.06048869 -250.03399658 493.7150116 C-250.03657881 492.32266559 -250.03959158 490.93032032 -250.04299998 489.53797609 C-250.05108994 485.6984122 -250.05286066 481.85886698 -250.05359745 478.01929557 C-250.05544455 473.88354035 -250.06299014 469.74779489 -250.06973267 465.61204529 C-250.0833307 456.56253117 -250.089343 447.51302147 -250.09374332 438.46349883 C-250.09650328 432.81602557 -250.10074018 427.16855403 -250.1052475 421.52108192 C-250.11744211 405.89381486 -250.12774103 390.26654918 -250.13112259 374.63927746 C-250.13134216 373.63855291 -250.13156172 372.63782836 -250.13178794 371.60677882 C-250.13200622 370.6036199 -250.1322245 369.60046097 -250.13244939 368.56690329 C-250.13289286 366.53402277 -250.13333942 364.50114224 -250.13378906 362.46826172 C-250.13401049 361.45987648 -250.13423192 360.45149124 -250.13446006 359.41254888 C-250.13840909 343.06865438 -250.15586543 326.72480445 -250.17914858 310.38092717 C-250.20284418 293.61258391 -250.21532362 276.84426303 -250.21649051 260.07590276 C-250.21740828 250.65637844 -250.22318627 241.23691216 -250.24131012 231.81740379 C-250.25668695 223.79716557 -250.26184591 215.77700333 -250.25357202 207.75675317 C-250.2496569 203.66299891 -250.2506369 199.56939779 -250.26462936 195.47566223 C-250.27731692 191.72951776 -250.27621643 187.98364227 -250.26403865 184.23749844 C-250.26113983 182.23707407 -250.27305632 180.23664527 -250.28546071 178.23625726 C-250.27887087 177.05014771 -250.27228102 175.86403816 -250.26549149 174.64198589 C-250.26608857 173.61820487 -250.26668566 172.59442384 -250.26730084 171.53961915 C-249.75226686 167.70048257 -248.25167485 164.95312438 -245.3449707 162.38598633 C-244.50470337 161.85255615 -244.50470337 161.85255615 -243.64746094 161.30834961 C-242.9902002 160.88158936 -242.33293945 160.4548291 -241.65576172 160.01513672 C-240.9298584 159.5576001 -240.20395508 159.10006348 -239.45605469 158.62866211 C-237.81826124 157.56651534 -236.18161933 156.50259163 -234.54589844 155.43725586 C-233.19407471 154.56109619 -233.19407471 154.56109619 -231.81494141 153.66723633 C-226.93414281 150.47020312 -222.11475711 147.18264363 -217.29220581 143.89874268 C-214.88977208 142.26305895 -212.48545611 140.6301518 -210.08125305 138.99707031 C-208.23885722 137.74550337 -206.39674902 136.493514 -204.5546875 135.24145508 C-199.24962755 131.63604889 -193.94148266 128.03518999 -188.63348389 124.43411255 C-185.72003968 122.45749391 -182.80680826 120.4805617 -179.89355469 118.50366211 C-178.72688903 117.71199395 -177.56022237 116.92032728 -176.39355469 116.12866211 C-175.52730469 115.54084961 -175.52730469 115.54084961 -174.64355469 114.94116211 C-85.39355469 54.37866211 -85.39355469 54.37866211 -83.64356995 53.19117737 C-82.47684634 52.39946879 -81.31012881 51.60775126 -80.14341736 50.81602478 C-77.22767162 48.83742583 -74.31182062 46.85898236 -71.39575195 44.88085938 C-64.96003718 40.51490416 -58.52678895 36.14536562 -52.09738159 31.77012634 C-49.1901811 29.79251903 -46.28096542 27.81800341 -43.3671875 25.85009766 C-42.21320324 25.07057574 -41.05923189 24.29103472 -39.90527344 23.51147461 C-39.04858566 22.93291466 -39.04858566 22.93291466 -38.17459106 22.34266663 C-34.52788354 19.87479457 -30.90296456 17.37763306 -27.2893219 14.86161804 C-24.83735062 13.15843314 -22.37541411 11.47003531 -19.91165161 9.78396606 C-18.74743086 8.98209111 -17.5876681 8.17369866 -16.43283081 7.35836792 C-5.14274563 -0.60537993 -5.14274563 -0.60537993 0 0 Z " fill="#EF7B52" transform="translate(257.8935546875,-0.753662109375)"/>
<path d="M0 0 C1.4361924 -0.00576119 2.87237743 -0.0137023 4.30854702 -0.02363622 C8.25554524 -0.0445337 12.20194 -0.03418159 16.14894056 -0.01870513 C20.40533533 -0.00740726 24.66162523 -0.02484653 28.91799927 -0.03860474 C37.25638697 -0.06085846 45.59454987 -0.05602649 53.93294644 -0.04154153 C60.70864284 -0.03025767 67.48427616 -0.02871469 74.25997925 -0.03416061 C75.2236839 -0.03492678 76.18738854 -0.03569294 77.18029636 -0.03648233 C79.13793605 -0.03808092 81.09557573 -0.03970199 83.05321538 -0.04134528 C101.41763317 -0.05560904 119.78192623 -0.03920024 138.14632356 -0.01234345 C153.90986737 0.00999589 169.67322709 0.00611594 185.43676758 -0.01693726 C203.73467192 -0.0436842 222.03246691 -0.05423568 240.33038807 -0.03887594 C242.28089712 -0.03728316 244.23140619 -0.03571131 246.18191528 -0.03416061 C247.14164716 -0.03338924 248.10137903 -0.03261786 249.09019369 -0.03182311 C255.8591365 -0.02750279 262.62801005 -0.0347998 269.39694214 -0.04655838 C277.6440811 -0.06056965 285.89098207 -0.05681244 294.13809371 -0.03015466 C298.34738501 -0.01699787 302.55627926 -0.01189551 306.76556778 -0.02840042 C310.61725532 -0.04327494 314.46817695 -0.03515413 318.31979477 -0.00851266 C319.71473752 -0.00291694 321.10974468 -0.0057927 322.50464618 -0.0178916 C334.24080748 -0.11189627 334.24080748 -0.11189627 337.54245567 3.04184151 C339.21215591 5.62133657 339.85078196 6.8617396 339.86791992 9.88687134 C339.88368073 10.69120605 339.89944153 11.49554077 339.91567993 12.32424927 C339.9004982 13.60724915 339.9004982 13.60724915 339.88500977 14.91616821 C339.8897934 15.80727295 339.89457703 16.69837769 339.89950562 17.6164856 C339.90289999 19.49585745 339.89372989 21.37528872 339.87280273 23.25454712 C339.84602883 26.1261702 339.87256438 28.99388501 339.90454102 31.86538696 C339.90123683 33.69482265 339.89483042 35.5242559 339.88500977 37.35366821 C339.89513092 38.20900146 339.90525208 39.06433472 339.91567993 39.94558716 C339.83733426 43.94386965 339.47117835 46.20470352 337.42944336 49.71499634 C333.7842409 51.89623756 332.18636527 51.84110976 328.02041626 51.75491333 C326.93561792 51.73758904 325.85081959 51.72026474 324.73314857 51.70241547 C323.90412214 51.68014137 323.07509571 51.65786728 322.22094727 51.63491821 C322.22284587 52.23607096 322.22474447 52.83722371 322.2267006 53.45659322 C322.33854721 89.07153873 322.42435785 124.68645406 322.47627391 160.3015386 C322.48252758 164.57615827 322.48899918 168.85077759 322.49560547 173.12539673 C322.49691702 173.97641039 322.49822857 174.82742404 322.49957987 175.70422599 C322.52134713 189.49077111 322.56077591 203.27721217 322.60671125 217.06369551 C322.65343918 231.20581836 322.6812349 245.34788664 322.69138974 259.49008352 C322.69825653 268.21936272 322.71995834 276.94834783 322.7605296 285.67753652 C322.7869228 291.66032443 322.79495607 297.6429599 322.78845415 303.62580182 C322.78524585 307.07970256 322.79022542 310.53308876 322.81697464 313.98689842 C322.84174633 317.72966154 322.83590864 321.47115269 322.82221985 325.21394348 C322.83678406 326.30829954 322.85134826 327.4026556 322.86635381 328.53017396 C322.79375562 335.84248961 322.79375562 335.84248961 319.92500305 339.8111496 C316.24597585 342.29249424 313.04552905 342.30056262 308.75878906 342.20254517 C307.49948326 342.20364037 307.49948326 342.20364037 306.21473694 342.20475769 C303.44921488 342.20128369 300.68539256 342.16243267 297.92016602 342.12319946 C295.9991803 342.11387064 294.07818266 342.10675485 292.15718079 342.10176086 C287.10821523 342.08269653 282.05997217 342.0336004 277.0112915 341.97824097 C271.8566668 341.92703642 266.70192502 341.90424423 261.54711914 341.87905884 C251.43807825 341.82548128 241.32957291 341.74017513 231.22094727 341.63491821 C232.03293076 340.86213531 232.84491425 340.08935242 233.6815033 339.29315186 C237.27769463 334.93949597 236.91677511 330.53935473 236.85205078 325.10317993 C236.85920609 324.05534332 236.86636139 323.00750671 236.87373352 321.92791748 C236.89060819 318.47303345 236.87122641 315.01944897 236.84985352 311.56460571 C236.85068219 309.16137586 236.85314153 306.75814606 236.85716248 304.35491943 C236.86001949 299.32291568 236.84532558 294.29135729 236.81787109 289.25942993 C236.78375251 282.80500955 236.78982002 276.35138363 236.80853367 269.89692497 C236.81909307 264.93670002 236.81017596 259.97666049 236.79514885 255.01645279 C236.78996131 252.6361763 236.79045574 250.2558805 236.7966938 247.87560654 C236.80213441 244.55260177 236.78180771 241.23074181 236.75439453 237.90786743 C236.76092041 236.92179504 236.76744629 235.93572266 236.77416992 234.91976929 C236.75664603 229.63498184 236.75664603 229.63498184 234.37510681 225.05535889 C231.18341047 222.95077229 228.63176383 222.50936411 224.90089417 222.50120544 C223.57814987 222.49480797 223.57814987 222.49480797 222.22868347 222.48828125 C220.78154716 222.48896103 220.78154716 222.48896103 219.30517578 222.48965454 C218.28703796 222.48629593 217.26890015 222.48293732 216.21990967 222.47947693 C212.84654529 222.46995997 209.47323049 222.4680235 206.09985352 222.46694946 C203.75959757 222.46373761 201.41934182 222.4603736 199.0790863 222.4568634 C194.17055801 222.45087042 189.26204732 222.4490237 184.35351562 222.44961548 C178.05727606 222.44971716 171.76114911 222.43605958 165.46493626 222.41884327 C160.63086933 222.4077371 155.79682977 222.40569584 150.96275139 222.4062252 C148.64107818 222.40504321 146.3194043 222.40060918 143.99774361 222.39289284 C140.75378602 222.38312011 137.51007464 222.38596023 134.26611328 222.39199829 C133.30337997 222.38637878 132.34064667 222.38075928 131.34873962 222.37496948 C130.02176559 222.38126122 130.02176559 222.38126122 128.66798401 222.38768005 C127.51790029 222.3868629 127.51790029 222.3868629 126.34458256 222.38602924 C122.76356376 222.80572281 120.74817232 223.99471636 118.47094727 226.75991821 C118.05844727 227.37866821 117.64594727 227.99741821 117.22094727 228.63491821 C116.62282227 227.85116821 116.02469727 227.06741821 115.40844727 226.25991821 C113.31009478 223.48917498 113.31009478 223.48917498 110.22094727 221.63491821 C111.02532227 221.16054321 111.82969727 220.68616821 112.65844727 220.19741821 C115.06848214 218.86591668 115.06848214 218.86591668 116.22094727 217.63491821 C116.31863853 216.21227592 116.34726416 214.78481805 116.34793091 213.35882568 C116.35075073 212.43622955 116.35357056 211.51363342 116.35647583 210.56307983 C116.3544516 209.54280701 116.35242737 208.52253418 116.3503418 207.47134399 C116.35209412 206.40312408 116.35384644 205.33490417 116.35565186 204.23431396 C116.36007358 200.68293663 116.35713084 197.13160861 116.35375977 193.58023071 C116.35443281 191.12261953 116.35540284 188.66500841 116.35665894 186.20739746 C116.35813642 181.04732634 116.35598009 175.88727249 116.35131836 170.72720337 C116.34562703 164.10350733 116.34889599 157.47985185 116.35489082 150.8561573 C116.35850016 145.7776458 116.35735602 140.69914396 116.35476303 135.62063217 C116.35409449 133.17811961 116.35491967 130.73560618 116.35724258 128.29309464 C116.35977452 124.88113324 116.3559205 121.46923795 116.3503418 118.05728149 C116.35337814 116.53294495 116.35337814 116.53294495 116.35647583 114.97781372 C116.35365601 114.04957794 116.35083618 113.12134216 116.34793091 112.16497803 C116.34755388 111.3578644 116.34717686 110.55075077 116.34678841 109.71917915 C116.29923394 107.43898067 116.29923394 107.43898067 115.22094727 104.63491821 C112.39241908 103.69207548 110.67027481 103.50931942 107.74230957 103.50793457 C106.82537827 103.50511475 105.90844696 103.50229492 104.96372986 103.49938965 C103.95999832 103.50141388 102.95626678 103.50343811 101.92211914 103.50552368 C100.33398155 103.5028952 100.33398155 103.5028952 98.71376038 103.50021362 C95.20572278 103.49580385 91.69773539 103.49873005 88.18969727 103.50210571 C85.75736481 103.50143242 83.32503242 103.50046219 80.8927002 103.49920654 C75.79166016 103.49773076 70.69063762 103.49988033 65.58959961 103.50454712 C59.0421891 103.51024432 52.49481959 103.50696469 45.94741058 103.50097466 C40.92380462 103.49736585 35.90020842 103.49850911 30.87660217 103.50110245 C28.46200048 103.50177083 26.04739791 103.50094638 23.63279724 103.49862289 C20.26176598 103.49609117 16.89080165 103.4999444 13.51977539 103.50552368 C12.01417809 103.50248734 12.01417809 103.50248734 10.47816467 103.49938965 C9.56123337 103.50220947 8.64430206 103.5050293 7.69958496 103.50793457 C6.50387249 103.50850011 6.50387249 103.50850011 5.28400421 103.50907707 C3.02168297 103.55807229 3.02168297 103.55807229 0.22094727 104.63491821 C-0.10905273 105.62491821 -0.43905273 106.61491821 -0.77905273 107.63491821 C-1.10905273 107.63491821 -1.43905273 107.63491821 -1.77905273 107.63491821 C-1.77905273 89.15491821 -1.77905273 70.67491821 -1.77905273 51.63491821 C-5.73905273 51.63491821 -9.69905273 51.63491821 -13.77905273 51.63491821 C-16.98754883 49.71499634 -16.98754883 49.71499634 -18.77905273 46.63491821 C-19.45355721 43.52292877 -19.48069366 40.5294002 -19.44311523 37.35366821 C-19.44789886 36.46256348 -19.4526825 35.57145874 -19.45761108 34.65335083 C-19.46100546 32.77397898 -19.45183536 30.89454771 -19.4309082 29.01528931 C-19.4041343 26.14366623 -19.43066985 23.27595142 -19.46264648 20.40444946 C-19.4593423 18.57501378 -19.45293589 16.74558052 -19.44311523 14.91616821 C-19.45323639 14.06083496 -19.46335754 13.20550171 -19.4737854 12.32424927 C-19.4580246 11.51991455 -19.44226379 10.71557983 -19.42602539 9.88687134 C-19.42204742 9.18469482 -19.41806946 8.48251831 -19.41397095 7.75906372 C-16.64645114 -1.49978984 -7.98423958 -0.06925256 0 0 Z " fill="#74757A" transform="translate(95.779052734375,170.36508178710938)"/>
<path d="M0 0 C1.58375679 -0.0131424 1.58375679 -0.0131424 3.19950867 -0.02655029 C6.68746102 -0.04854572 10.17414427 -0.03398983 13.66210938 -0.01708984 C16.08679447 -0.0204579 18.51147792 -0.02531043 20.93615723 -0.03158569 C26.01700927 -0.03895727 31.09742172 -0.02824157 36.17822266 -0.00488281 C42.69209025 0.02360423 49.20492783 0.00720192 55.71875763 -0.02274513 C60.72535976 -0.04080985 65.73171755 -0.03506367 70.73832703 -0.02210617 C73.14011253 -0.01876992 75.54192019 -0.02286686 77.94367981 -0.03450394 C81.30029082 -0.04719817 84.65523216 -0.02785293 88.01171875 0 C89.00511765 -0.01012115 89.99851654 -0.02024231 91.02201843 -0.03067017 C95.34639024 0.03583342 97.86656198 0.26155808 101.62229919 2.52578735 C104.37299265 7.08387054 104.19799476 10.9986783 104.13696289 16.23291016 C104.14411819 17.29850159 104.1512735 18.36409302 104.15864563 19.4619751 C104.17554676 22.98241109 104.15612026 26.50157627 104.13476562 30.02197266 C104.13559418 32.46907659 104.13805307 34.91618048 104.14207458 37.36328125 C104.14493358 42.49121864 104.13022058 47.6187195 104.1027832 52.74658203 C104.06870106 59.32087563 104.07471812 65.89438852 104.09344578 72.46871948 C104.10401241 77.52163198 104.09508084 82.57436271 104.08006096 87.6272583 C104.07487627 90.05136577 104.07536441 92.47549219 104.08160591 94.89959717 C104.08705375 98.28715866 104.06669488 101.67360114 104.03930664 105.06103516 C104.04583252 106.06378479 104.0523584 107.06653442 104.05908203 108.09967041 C103.99749773 112.57750951 103.94383191 114.96597346 101.47251892 118.80859375 C100.82352127 119.41525879 100.17452362 120.02192383 99.50585938 120.64697266 C101.15585938 121.96697266 102.80585938 123.28697266 104.50585938 124.64697266 C105.12460938 124.00759766 105.74335938 123.36822266 106.38085938 122.70947266 C109.28138793 119.89425377 110.77113327 119.52178421 114.69219971 119.50653076 C116.00854652 119.49796555 116.00854652 119.49796555 117.35148621 119.48922729 C118.31669693 119.48810944 119.28190765 119.48699158 120.27636719 119.48583984 C121.29114639 119.48087494 122.3059256 119.47591003 123.35145569 119.47079468 C126.72063873 119.45614709 130.08977467 119.44936619 133.45898438 119.44384766 C135.79587811 119.43809768 138.13277183 119.43233992 140.46966553 119.42657471 C145.37577535 119.41605687 150.28186876 119.41021955 155.18798828 119.40673828 C161.47401898 119.40125654 167.75983274 119.37723846 174.04579544 119.34876633 C178.87565748 119.33013883 183.70546732 119.32493425 188.53536224 119.3234024 C190.85259943 119.32037485 193.16983567 119.31234288 195.48703766 119.29921722 C198.73078371 119.28215724 201.97400069 119.28403727 205.21777344 119.29052734 C206.65344414 119.27670517 206.65344414 119.27670517 208.11811829 119.26260376 C213.31658124 119.29517532 217.04919142 119.65690081 221.50585938 122.64697266 C223.59676266 125.78332758 223.75808016 126.50323532 223.77328491 130.07418823 C223.78607986 131.43262848 223.78607986 131.43262848 223.7991333 132.81851196 C223.79777374 134.30537003 223.79777374 134.30537003 223.79638672 135.82226562 C223.80310394 136.86805786 223.80982117 137.9138501 223.81674194 138.99133301 C223.83577974 142.45732338 223.83964909 145.92312071 223.84179688 149.38916016 C223.84822082 151.79428183 223.85494887 154.1994027 223.86196899 156.60452271 C223.87395627 161.65010388 223.87764833 166.69561652 223.87646484 171.74121094 C223.87626159 178.21012097 223.90356496 184.67859203 223.93800926 191.14739799 C223.96023469 196.116201 223.96430371 201.08489764 223.96324539 206.05374527 C223.96560787 208.4387984 223.97446759 210.82385418 223.98991013 213.20885849 C224.00948115 216.54384951 224.00376634 219.87788458 223.99169922 223.21289062 C224.00293823 224.20008087 224.01417725 225.18727112 224.02575684 226.20437622 C223.98577426 230.54754904 223.92124779 232.97340272 221.60049438 236.73660278 C217.60511979 240.38050409 213.7923778 239.79522559 208.63650513 239.79414368 C207.7065686 239.79782036 206.77663208 239.80149705 205.81851566 239.80528516 C202.68320417 239.81635263 199.54792579 239.82017099 196.41259766 239.82397461 C194.17251479 239.83023684 191.93243297 239.83688343 189.69235229 239.84388733 C183.59322673 239.86131704 177.49410901 239.87185401 171.39496469 239.88009286 C167.58809554 239.88523779 163.78122884 239.89131368 159.97436142 239.89760399 C149.43835086 239.91447503 138.90234145 239.92911094 128.36631966 239.93635273 C125.63174564 239.93826268 122.89717164 239.94018301 120.16259766 239.94213867 C119.14307777 239.94286428 119.14307777 239.94286428 118.10296153 239.94360455 C107.08677792 239.95190906 96.07070275 239.97725329 85.05456652 240.00971935 C73.74984033 240.04276493 62.44516729 240.06046618 51.14038646 240.06399697 C44.79095846 240.06635302 38.44170188 240.07538565 32.09231949 240.10045815 C26.12187313 240.12365327 20.1517121 240.12800663 14.18123245 240.11769676 C11.98659824 240.11719923 9.79195039 240.12358305 7.5973587 240.13725281 C4.60761946 240.15483759 1.61891921 240.14793179 -1.37081909 240.13471985 C-2.682 240.15117372 -2.682 240.15117372 -4.01966941 240.16795999 C-9.89128294 240.10505469 -9.89128294 240.10505469 -13.00184822 237.74148846 C-15.16889893 234.69991167 -15.6212979 233.03148003 -15.64131165 229.34674072 C-15.64846695 228.44393372 -15.65562225 227.54112671 -15.66299438 226.61096191 C-15.66568329 225.61769897 -15.66837219 224.62443604 -15.67114258 223.60107422 C-15.67771378 222.5570343 -15.68428497 221.51299438 -15.6910553 220.43731689 C-15.71081962 216.97074314 -15.72245804 213.50421278 -15.73242188 210.03759766 C-15.7364974 208.85540398 -15.74057293 207.6732103 -15.74477196 206.45519257 C-15.76564631 200.19783196 -15.77994199 193.94049338 -15.78930664 187.68310547 C-15.80037242 181.21541209 -15.8347708 174.74806264 -15.87447834 168.28049088 C-15.90060846 163.31165929 -15.90899531 158.34291007 -15.91258812 153.37401581 C-15.91746357 150.98978096 -15.92910464 148.60555003 -15.94762611 146.22138214 C-15.97193948 142.88412648 -15.97106634 139.5477661 -15.96411133 136.21044922 C-15.97692139 135.2252832 -15.98973145 134.24011719 -16.00292969 133.22509766 C-15.95856306 127.38466036 -15.28939434 124.15318809 -11.49414062 119.64697266 C-12.14313828 119.03841431 -12.79213593 118.42985596 -13.46080017 117.80285645 C-16.37597104 113.2783114 -16.06226121 109.43096251 -16.02758789 104.15283203 C-16.03620346 103.09699417 -16.04481903 102.04115631 -16.05369568 100.95332336 C-16.07638626 97.46553998 -16.06961108 93.97855798 -16.06054688 90.49072266 C-16.06578081 88.0660376 -16.07205645 85.64135459 -16.07933044 83.2166748 C-16.08974023 78.13588884 -16.0851642 73.05538285 -16.07055664 67.97460938 C-16.05336275 61.46077108 -16.07686974 54.94781433 -16.11204624 48.4340744 C-16.13399572 43.4274917 -16.13258469 38.42112077 -16.12428093 33.414505 C-16.12346018 31.0127109 -16.13034699 28.61090145 -16.14505196 26.20915222 C-16.16245287 22.8525861 -16.14799081 19.49761493 -16.12524414 16.14111328 C-16.13693634 15.14771439 -16.14862854 14.15431549 -16.16067505 13.1308136 C-16.10091842 8.80139456 -15.88253338 6.28938241 -13.61058044 2.53152466 C-9.07883109 -0.20888357 -5.20737288 -0.05305485 0 0 Z " fill="#FCDC84" transform="translate(109.494140625,272.35302734375)"/>
<path d="M0 0 C1.4361924 -0.00576119 2.87237743 -0.0137023 4.30854702 -0.02363622 C8.25554524 -0.0445337 12.20194 -0.03418159 16.14894056 -0.01870513 C20.40533533 -0.00740726 24.66162523 -0.02484653 28.91799927 -0.03860474 C37.25638697 -0.06085846 45.59454987 -0.05602649 53.93294644 -0.04154153 C60.70864284 -0.03025767 67.48427616 -0.02871469 74.25997925 -0.03416061 C75.2236839 -0.03492678 76.18738854 -0.03569294 77.18029636 -0.03648233 C79.13793605 -0.03808092 81.09557573 -0.03970199 83.05321538 -0.04134528 C101.41763317 -0.05560904 119.78192623 -0.03920024 138.14632356 -0.01234345 C153.90986737 0.00999589 169.67322709 0.00611594 185.43676758 -0.01693726 C203.73467192 -0.0436842 222.03246691 -0.05423568 240.33038807 -0.03887594 C242.28089712 -0.03728316 244.23140619 -0.03571131 246.18191528 -0.03416061 C247.14164716 -0.03338924 248.10137903 -0.03261786 249.09019369 -0.03182311 C255.8591365 -0.02750279 262.62801005 -0.0347998 269.39694214 -0.04655838 C277.6440811 -0.06056965 285.89098207 -0.05681244 294.13809371 -0.03015466 C298.34738501 -0.01699787 302.55627926 -0.01189551 306.76556778 -0.02840042 C310.61725532 -0.04327494 314.46817695 -0.03515413 318.31979477 -0.00851266 C319.71473752 -0.00291694 321.10974468 -0.0057927 322.50464618 -0.0178916 C334.24080748 -0.11189627 334.24080748 -0.11189627 337.54245567 3.04184151 C339.21215591 5.62133657 339.85078196 6.8617396 339.86791992 9.88687134 C339.88368073 10.69120605 339.89944153 11.49554077 339.91567993 12.32424927 C339.9004982 13.60724915 339.9004982 13.60724915 339.88500977 14.91616821 C339.8897934 15.80727295 339.89457703 16.69837769 339.89950562 17.6164856 C339.90289999 19.49585745 339.89372989 21.37528872 339.87280273 23.25454712 C339.84602883 26.1261702 339.87256438 28.99388501 339.90454102 31.86538696 C339.90123683 33.69482265 339.89483042 35.5242559 339.88500977 37.35366821 C339.89513092 38.20900146 339.90525208 39.06433472 339.91567993 39.94558716 C339.89991913 40.74992187 339.88415833 41.55425659 339.86791992 42.38296509 C339.86394196 43.0851416 339.85996399 43.78731812 339.85586548 44.51077271 C338.83449151 47.92782214 337.28962775 49.91934557 334.22094727 51.63491821 C329.64624128 52.41025922 325.06791647 52.30996095 320.44189453 52.26983643 C319.00570214 52.27559762 317.56951711 52.28353872 316.13334751 52.29347265 C312.18634929 52.31437013 308.23995453 52.30401802 304.29295397 52.28854156 C300.0365592 52.27724369 295.7802693 52.29468295 291.52389526 52.30844116 C283.18550756 52.33069489 274.84734466 52.32586292 266.50894809 52.31137796 C259.73325169 52.30009409 252.95761838 52.29855112 246.18191528 52.30399704 C245.21821064 52.3047632 244.25450599 52.30552937 243.26159817 52.30631875 C241.30395848 52.30791735 239.3463188 52.30953842 237.38867915 52.31118171 C219.02426136 52.32544546 200.6599683 52.30903666 182.29557097 52.28217988 C166.53202716 52.25984053 150.76866744 52.26372049 135.00512695 52.28677368 C116.70722261 52.31352063 98.40942762 52.32407211 80.11150646 52.30871236 C78.16099741 52.30711959 76.21048834 52.30554773 74.25997925 52.30399704 C73.30024737 52.30322566 72.3405155 52.30245428 71.35170084 52.30165953 C64.58275803 52.29733921 57.81388448 52.30463623 51.04495239 52.31639481 C42.79781343 52.33040607 34.55091246 52.32664886 26.30380082 52.29999109 C22.09450952 52.2868343 17.88561527 52.28173193 13.67632675 52.29823685 C9.82463921 52.31311137 5.97371758 52.30499056 2.12209976 52.27834909 C0.72715701 52.27275337 -0.66785015 52.27562913 -2.06275165 52.28772803 C-13.79891295 52.3817327 -13.79891295 52.3817327 -17.10056114 49.22799492 C-18.77026138 46.64849985 -19.40888743 45.40809683 -19.42602539 42.38296509 C-19.44178619 41.57863037 -19.457547 40.77429565 -19.4737854 39.94558716 C-19.46366425 39.09025391 -19.45354309 38.23492065 -19.44311523 37.35366821 C-19.44789886 36.46256348 -19.4526825 35.57145874 -19.45761108 34.65335083 C-19.46100546 32.77397898 -19.45183536 30.89454771 -19.4309082 29.01528931 C-19.4041343 26.14366623 -19.43066985 23.27595142 -19.46264648 20.40444946 C-19.4593423 18.57501378 -19.45293589 16.74558052 -19.44311523 14.91616821 C-19.45323639 14.06083496 -19.46335754 13.20550171 -19.4737854 12.32424927 C-19.4580246 11.51991455 -19.44226379 10.71557983 -19.42602539 9.88687134 C-19.42204742 9.18469482 -19.41806946 8.48251831 -19.41397095 7.75906372 C-16.64645114 -1.49978984 -7.98423958 -0.06925256 0 0 Z " fill="#C2C3C5" transform="translate(95.779052734375,170.36508178710938)"/>
<path d="M0 0 C2.75 1.3125 2.75 1.3125 5 3 C5.763125 3.556875 6.52625 4.11375 7.3125 4.6875 C7.869375 5.120625 8.42625 5.55375 9 6 C5.92302938 9.30001374 2.55005472 11.82897369 -1.1875 14.31640625 C-1.79349533 14.72500381 -2.39949066 15.13360138 -3.02384949 15.55458069 C-5.01318177 16.89464449 -7.00659462 18.22850445 -9 19.5625 C-10.40047075 20.5045637 -11.80061269 21.44711637 -13.20043945 22.39013672 C-16.07205485 24.32420111 -18.94497932 26.2562968 -21.81884766 28.18701172 C-27.38338259 31.92773197 -32.93056515 35.69388825 -38.47631836 39.46237183 C-41.3519333 41.41615094 -44.2287981 43.36808827 -47.10546875 45.3203125 C-48.25309889 46.09927436 -49.40072259 46.87824571 -50.54833984 47.65722656 C-55.78086205 51.2088397 -61.01394547 54.75962581 -66.24697876 58.31048584 C-69.16467475 60.29029111 -72.08233562 62.27014814 -75 64.25 C-76.1666665 65.04166692 -77.33333316 65.83333358 -78.5 66.625 C-79.0775 67.016875 -79.655 67.40875 -80.25 67.8125 C-124.875 98.09375 -124.875 98.09375 -169.5 128.375 C-170.07737411 128.76679947 -170.65474823 129.15859894 -171.24961853 129.56227112 C-172.41751964 130.35475544 -173.58545793 131.14718496 -174.75343323 131.93955994 C-177.65151883 133.9057711 -180.54897381 135.87289812 -183.44506836 137.84204102 C-188.91602568 141.56046178 -194.39321199 145.26871132 -199.89126587 148.94699097 C-202.49142146 150.68730791 -205.08824165 152.43256611 -207.68481445 154.17822266 C-208.92501571 155.00996861 -210.16685148 155.83928315 -211.41040039 156.66601562 C-213.13324609 157.81161075 -214.85031015 158.96542144 -216.56640625 160.12109375 C-217.54552979 160.7752124 -218.52465332 161.42933105 -219.53344727 162.10327148 C-222.81378689 164.62578544 -224.7821842 166.45957807 -225.37604749 170.65945721 C-225.37653455 171.68253381 -225.37702161 172.70561041 -225.37752342 173.75968933 C-225.38534666 174.94257443 -225.39316991 176.12545954 -225.40123022 177.34418964 C-225.39453805 178.64495032 -225.38784589 179.945711 -225.38095093 181.28588867 C-225.38440671 182.68067638 -225.38917075 184.07546135 -225.39513266 185.47024059 C-225.40768332 189.30728675 -225.40145392 193.14410975 -225.39217401 196.98115683 C-225.38540044 201.11754989 -225.39585632 205.25390394 -225.40411377 209.39028931 C-225.41747142 217.49515122 -225.41456434 225.59992991 -225.40587585 233.70479512 C-225.39910769 240.29029478 -225.39817881 246.87577106 -225.4014473 253.46127319 C-225.401907 254.39764844 -225.40236669 255.33402369 -225.40284032 256.29877394 C-225.40379948 258.20085089 -225.40477211 260.10292783 -225.4057581 262.00500476 C-225.41431794 279.85145156 -225.40446854 297.69785216 -225.388357 315.54429138 C-225.37495328 330.86581374 -225.3772812 346.18726793 -225.39111328 361.50878906 C-225.4071586 379.29026697 -225.41349391 397.07170438 -225.40427649 414.85318851 C-225.40332082 416.74836794 -225.40237771 418.64354737 -225.4014473 420.53872681 C-225.40098447 421.47125328 -225.40052164 422.40377975 -225.40004479 423.3645646 C-225.39745175 429.94409257 -225.40183265 436.5235949 -225.40888596 443.1031189 C-225.41728952 451.11859093 -225.41504496 459.13397481 -225.39904372 467.14943671 C-225.39114555 471.24104781 -225.38809561 475.33251177 -225.39799118 479.42412186 C-225.40690676 483.16706358 -225.40205743 486.9097213 -225.38605852 490.65263712 C-225.38110062 492.65369512 -225.39093526 494.6547727 -225.40123022 496.65581036 C-225.39340697 497.83869546 -225.38558373 499.02158056 -225.37752342 500.24031067 C-225.37703637 501.26338727 -225.37654931 502.28646387 -225.37604749 503.34054279 C-224.93812606 506.43758061 -224.12844415 507.74221141 -222 510 C-221.01 510.66 -220.02 511.32 -219 512 C-223.58312084 512.11605098 -228.16586449 512.18720362 -232.75 512.25 C-234.05195313 512.28351562 -235.35390625 512.31703125 -236.6953125 512.3515625 C-237.94570312 512.36445312 -239.19609375 512.37734375 -240.484375 512.390625 C-241.63647461 512.41157227 -242.78857422 512.43251953 -243.97558594 512.45410156 C-247.63732191 511.90430911 -248.74207694 510.86536431 -251 508 C-252.31347682 505.37304635 -252.12784231 503.43262929 -252.13142776 500.48919964 C-252.13526891 499.31091333 -252.13911005 498.13262702 -252.1430676 496.91863507 C-252.14220112 495.61273083 -252.14133463 494.30682659 -252.14044189 492.96134949 C-252.14302413 491.56900348 -252.14603689 490.17665821 -252.1494453 488.78431398 C-252.15753525 484.94475009 -252.15930597 481.10520487 -252.16004276 477.26563346 C-252.16188986 473.12987824 -252.16943545 468.99413278 -252.17617798 464.85838318 C-252.18977601 455.80886906 -252.19578831 446.75935936 -252.20018864 437.70983672 C-252.20294859 432.06236346 -252.20718549 426.41489192 -252.21169281 420.76741982 C-252.22388742 405.14015275 -252.23418634 389.51288707 -252.2375679 373.88561535 C-252.23778747 372.8848908 -252.23800703 371.88416625 -252.23823325 370.85311671 C-252.23845153 369.84995779 -252.23866981 368.84679886 -252.2388947 367.81324118 C-252.23933817 365.78036066 -252.23978474 363.74748013 -252.24023438 361.71459961 C-252.2404558 360.70621437 -252.24067723 359.69782913 -252.24090537 358.65888677 C-252.2448544 342.31499227 -252.26231074 325.97114234 -252.2855939 309.62726506 C-252.30928949 292.8589218 -252.32176894 276.09060092 -252.32293582 259.32224065 C-252.32385359 249.90271633 -252.32963158 240.48325005 -252.34775543 231.06374168 C-252.36313226 223.04350346 -252.36829122 215.02334122 -252.36001733 207.00309106 C-252.35610221 202.90933681 -252.35708221 198.81573568 -252.37107468 194.72200012 C-252.38376223 190.97585565 -252.38266174 187.22998016 -252.37048396 183.48383633 C-252.36758514 181.48341196 -252.37950163 179.48298316 -252.39190602 177.48259515 C-252.38531618 176.2964856 -252.37872633 175.11037605 -252.3719368 173.88832378 C-252.37253389 172.86454276 -252.37313097 171.84076173 -252.37374616 170.78595704 C-251.85871218 166.94682046 -250.35812017 164.19946227 -247.45141602 161.63232422 C-246.61114868 161.09889404 -246.61114868 161.09889404 -245.75390625 160.5546875 C-245.09664551 160.12792725 -244.43938477 159.70116699 -243.76220703 159.26147461 C-243.03630371 158.80393799 -242.31040039 158.34640137 -241.5625 157.875 C-239.92470655 156.81285323 -238.28806464 155.74892952 -236.65234375 154.68359375 C-235.30052002 153.80743408 -235.30052002 153.80743408 -233.92138672 152.91357422 C-229.04058812 149.71654101 -224.22120242 146.42898152 -219.39865112 143.14508057 C-216.99621739 141.50939684 -214.59190142 139.87648969 -212.18769836 138.2434082 C-210.34530253 136.99184126 -208.50319434 135.73985189 -206.66113281 134.48779297 C-201.35607286 130.88238679 -196.04792797 127.28152788 -190.7399292 123.68045044 C-187.82648499 121.7038318 -184.91325357 119.72689959 -182 117.75 C-180.83333435 116.95833184 -179.66666768 116.16666517 -178.5 115.375 C-177.63375 114.7871875 -177.63375 114.7871875 -176.75 114.1875 C-87.5 53.625 -87.5 53.625 -85.75001526 52.43751526 C-84.58329165 51.64580668 -83.41657412 50.85408915 -82.24986267 50.06236267 C-79.33411693 48.08376372 -76.41826594 46.10532025 -73.50219727 44.12719727 C-67.0664825 39.76124205 -60.63323426 35.39170352 -54.2038269 31.01646423 C-51.29662642 29.03885692 -48.38741073 27.0643413 -45.47363281 25.09643555 C-44.31964855 24.31691363 -43.16567721 23.53737261 -42.01171875 22.7578125 C-41.15503098 22.17925255 -41.15503098 22.17925255 -40.28103638 21.58900452 C-36.63432886 19.12113246 -33.00940987 16.62397095 -29.39576721 14.10795593 C-26.94379593 12.40477103 -24.48185942 10.7163732 -22.01809692 9.03030396 C-20.85387617 8.228429 -19.69411341 7.42003655 -18.53927612 6.60470581 C-7.22448248 -1.37647078 -7.22448248 -1.37647078 0 0 Z " fill="#E5563C" transform="translate(260,0)"/>
<path d="M0 0 C0.86833434 0.64952385 1.73666868 1.2990477 2.63131618 1.96825409 C8.31933848 5.18327734 14.54061098 4.55098404 20.89894104 4.50793457 C22.32376887 4.51254635 23.74859195 4.51890112 25.17340511 4.52684355 C29.07967899 4.54352206 32.98556134 4.53529743 36.89183652 4.52289867 C41.10798171 4.51384448 45.32405981 4.52781968 49.54019165 4.53881836 C57.79573012 4.55660377 66.05112311 4.55276364 74.30666728 4.5411678 C81.01555764 4.53213445 87.72440723 4.53090905 94.43330193 4.53526306 C95.38812079 4.53587599 96.34293965 4.53648893 97.32669241 4.53712043 C99.2663723 4.53839933 101.20605217 4.53969618 103.14573204 4.5410108 C121.33324456 4.5524165 139.52067642 4.53930272 157.70817571 4.51780933 C173.31615166 4.49993549 188.92400862 4.50304484 204.53198242 4.52148438 C222.65593883 4.54288631 240.77982457 4.55132089 258.90379184 4.53903532 C260.8360325 4.53776112 262.76827316 4.53650363 264.70051384 4.53526306 C266.12657712 4.53433741 266.12657712 4.53433741 267.58144977 4.53339306 C274.28331146 4.52993834 280.98512835 4.53577106 287.68698311 4.54518127 C295.85276659 4.55639498 304.01839625 4.55337434 312.18416209 4.5320583 C316.35101345 4.52153983 320.51760827 4.51743956 324.68445778 4.53065491 C328.49839385 4.54256814 332.31183541 4.53603438 336.12572657 4.5147447 C337.50582533 4.51027408 338.88596581 4.51255531 340.26603777 4.52224785 C349.96890807 4.74038868 349.96890807 4.74038868 358 0 C358.13548815 2.73083902 358.23429855 5.45491807 358.3125 8.1875 C358.35439453 8.95642578 358.39628906 9.72535156 358.43945312 10.51757812 C358.45556641 11.26845703 358.47167969 12.01933594 358.48828125 12.79296875 C358.51446533 13.4789917 358.54064941 14.16501465 358.56762695 14.87182617 C357.88776047 17.42081377 356.84530699 19.09771087 354.93547153 20.91942191 C350.29300503 23.51132135 344.40065947 22.67984526 339.22094727 22.63491821 C337.78475487 22.6406794 336.34856984 22.64862051 334.91240025 22.65855443 C330.96540203 22.67945192 327.01900726 22.66909981 323.0720067 22.65362334 C318.81561194 22.64232547 314.55932203 22.65976474 310.302948 22.67352295 C301.9645603 22.69577667 293.6263974 22.6909447 285.28800082 22.67645974 C278.51230443 22.66517588 271.73667111 22.6636329 264.96096802 22.66907883 C263.99726337 22.66984499 263.03355872 22.67061116 262.0406509 22.67140054 C260.08301121 22.67299914 258.12537154 22.6746202 256.16773188 22.6762635 C237.8033141 22.69052725 219.43902103 22.67411845 201.0746237 22.64726166 C185.3110799 22.62492232 169.54772017 22.62880227 153.78417969 22.65185547 C135.48627534 22.67860242 117.18848036 22.68915389 98.8905592 22.67379415 C96.94005014 22.67220137 94.98954107 22.67062952 93.03903198 22.66907883 C92.07930011 22.66830745 91.11956823 22.66753607 90.13075358 22.66674132 C83.36181076 22.662421 76.59293721 22.66971801 69.82400513 22.68147659 C61.57686616 22.69548786 53.32996519 22.69173065 45.08285356 22.66507287 C40.87356226 22.65191608 36.66466801 22.64681372 32.45537949 22.66331863 C28.60369195 22.67819315 24.75277031 22.67007235 20.90115249 22.64343087 C19.50620974 22.63783515 18.11120259 22.64071092 16.71630108 22.65280981 C4.98031879 22.74681305 4.98031879 22.74681305 1.67428589 19.59332848 C-0.00334097 16.99482512 -0.60428275 15.83220809 -0.48828125 12.79296875 C-0.47216797 12.04208984 -0.45605469 11.29121094 -0.43945312 10.51757812 C-0.39755859 9.74865234 -0.35566406 8.97972656 -0.3125 8.1875 C-0.28994141 7.39923828 -0.26738281 6.61097656 -0.24414062 5.79882812 C-0.18554161 3.86506071 -0.09586827 1.93227833 0 0 Z " fill="#AFB0B4" transform="translate(77,200)"/>
<path d="M0 0 C0.84111328 0.01611328 1.68222656 0.03222656 2.54882812 0.04882812 C3.84530273 0.11166992 3.84530273 0.11166992 5.16796875 0.17578125 C6.05162109 0.19833984 6.93527344 0.22089844 7.84570312 0.24414062 C10.01635785 0.30280697 12.18613565 0.39248146 14.35546875 0.48828125 C13.14890625 1.44734375 13.14890625 1.44734375 11.91796875 2.42578125 C10.08041835 3.89431627 10.08041835 3.89431627 8.35546875 5.48828125 C8.251337 6.89575379 8.21585855 8.30838167 8.20829773 9.71968079 C8.20114243 10.6324176 8.19398712 11.54515442 8.18661499 12.48554993 C8.18392609 13.49490097 8.18123718 14.50425201 8.1784668 15.54418945 C8.1718956 16.6010495 8.1653244 17.65790955 8.15855408 18.74679565 C8.13876616 22.26088522 8.12714656 25.77493197 8.1171875 29.2890625 C8.11311197 30.48570211 8.10903645 31.68234173 8.10483742 32.91524315 C8.08395368 39.24809982 8.06966169 45.58093466 8.06030273 51.91381836 C8.04923071 58.46805255 8.01482783 65.02194793 7.97513103 71.5760622 C7.94903352 76.60400541 7.94061702 81.63186706 7.93702126 86.65987206 C7.93213789 89.07646156 7.92047457 91.493047 7.90198326 93.90957069 C7.8777373 97.28805289 7.8785305 100.66564761 7.88549805 104.04418945 C7.86628296 105.54910698 7.86628296 105.54910698 7.84667969 107.08442688 C7.79685208 112.43565069 7.79685208 112.43565069 10.25984192 117.01603699 C10.95139877 117.50187759 11.64295563 117.9877182 12.35546875 118.48828125 C13.01546875 119.14828125 13.67546875 119.80828125 14.35546875 120.48828125 C13.14890625 121.16890625 13.14890625 121.16890625 11.91796875 121.86328125 C9.26690303 123.2355379 9.26690303 123.2355379 8.35546875 125.48828125 C8.25516054 126.93394435 8.21608283 128.38408819 8.20829773 129.83320618 C8.20114243 130.7458725 8.19398712 131.65853882 8.18661499 132.59886169 C8.18392609 133.60304642 8.18123718 134.60723114 8.1784668 135.6418457 C8.1718956 136.69724548 8.1653244 137.75264526 8.15855408 138.84002686 C8.1387911 142.34387273 8.12715229 145.8476757 8.1171875 149.3515625 C8.11311197 150.54603689 8.10903645 151.74051128 8.10483742 152.97118187 C8.0839647 159.29222822 8.0696677 165.61325279 8.06030273 171.93432617 C8.04923084 178.47161841 8.01482496 185.00857096 7.97513103 191.54574299 C7.94901875 196.56514633 7.94061571 201.58446804 7.93702126 206.60393333 C7.93214202 209.01411422 7.92049027 211.42429113 7.90198326 213.8344059 C7.87770531 217.20539093 7.87853638 220.57548801 7.88549805 223.9465332 C7.86628296 225.44370125 7.86628296 225.44370125 7.84667969 226.97111511 C7.88040777 231.44528375 7.91648214 233.80496833 10.38484192 237.6471405 C11.03514877 238.25471695 11.68545563 238.8622934 12.35546875 239.48828125 C9.60441453 239.59640128 6.85761788 239.6756307 4.10546875 239.73828125 C3.32816406 239.77179688 2.55085938 239.8053125 1.75 239.83984375 C-4.05222879 239.93902715 -4.05222879 239.93902715 -7.12890625 237.59765625 C-9.31810313 234.55083584 -9.77160684 232.88782745 -9.79170227 229.18804932 C-9.79885757 228.28524231 -9.80601288 227.3824353 -9.81338501 226.45227051 C-9.81607391 225.45900757 -9.81876282 224.46574463 -9.8215332 223.44238281 C-9.8281044 222.3983429 -9.8346756 221.35430298 -9.84144592 220.27862549 C-9.86121025 216.81205174 -9.87284867 213.34552138 -9.8828125 209.87890625 C-9.88688803 208.69671257 -9.89096355 207.51451889 -9.89516258 206.29650116 C-9.91603693 200.03914056 -9.93033262 193.78180198 -9.93969727 187.52441406 C-9.95076304 181.05672069 -9.98516142 174.58937123 -10.02486897 168.12179947 C-10.05099909 163.15296788 -10.05938594 158.18421866 -10.06297874 153.2153244 C-10.06785419 150.83108956 -10.07949527 148.44685862 -10.09801674 146.06269073 C-10.12233011 142.72543507 -10.12145696 139.38907469 -10.11450195 136.05175781 C-10.12731201 135.0665918 -10.14012207 134.08142578 -10.15332031 133.06640625 C-10.10895368 127.22596895 -9.43978497 123.99449669 -5.64453125 119.48828125 C-6.2935289 118.8797229 -6.94252655 118.27116455 -7.6111908 117.64416504 C-10.52636166 113.11961999 -10.21265184 109.2722711 -10.17797852 103.99414062 C-10.18659409 102.93830276 -10.19520966 101.8824649 -10.2040863 100.79463196 C-10.22677689 97.30684857 -10.2200017 93.81986657 -10.2109375 90.33203125 C-10.21617144 87.9073462 -10.22244707 85.48266319 -10.22972107 83.0579834 C-10.24013085 77.97719743 -10.23555483 72.89669144 -10.22094727 67.81591797 C-10.20375338 61.30207967 -10.22726036 54.78912293 -10.26243687 48.275383 C-10.28438635 43.2688003 -10.28297531 38.26242936 -10.27467155 33.2558136 C-10.27385081 30.8540195 -10.28073761 28.45221004 -10.29544258 26.05046082 C-10.31284349 22.6938947 -10.29838143 19.33892352 -10.27563477 15.98242188 C-10.28732697 14.98902298 -10.29901917 13.99562408 -10.31106567 12.97212219 C-10.24644982 8.29064822 -10.17495321 6.1793715 -7.24957275 2.36787415 C-4.48185705 0.37090835 -3.35103146 -0.11398066 0 0 Z " fill="#FCCF42" transform="translate(103.64453125,272.51171875)"/>
<path d="M0 0 C0.80179688 0.00451172 1.60359375 0.00902344 2.4296875 0.01367188 C4.41149006 0.02546832 6.39325433 0.04340395 8.375 0.0625 C7.72534775 0.83939682 7.0756955 1.61629364 6.40635681 2.41673279 C3.49282817 6.82499089 3.82168588 11.26119375 3.87329102 16.39477539 C3.86788803 17.42149857 3.86248505 18.44822174 3.85691833 19.50605774 C3.84443749 22.89105279 3.86091741 26.27519634 3.87890625 29.66015625 C3.87875126 32.01614934 3.87726228 34.37214269 3.87449646 36.72813416 C3.87311279 41.66172581 3.88566661 46.59502663 3.90844727 51.52856445 C3.936847 57.85274681 3.93408973 64.17644655 3.92135715 70.50066471 C3.91440324 75.36396915 3.92218579 80.227162 3.93461418 85.09045219 C3.93913035 87.42245493 3.93946405 89.75446964 3.93554878 92.08647346 C3.93263907 95.34443871 3.94913235 98.60173803 3.97094727 101.85961914 C3.96419479 103.30528259 3.96419479 103.30528259 3.95730591 104.78015137 C4.0263539 110.98530838 4.86508923 114.55258923 9.375 119.0625 C0.135 119.0625 -9.105 119.0625 -18.625 119.0625 C-17.305 117.4125 -15.985 115.7625 -14.625 114.0625 C-14.04088013 111.77735066 -14.04088013 111.77735066 -14.12620544 109.39477539 C-14.11662811 108.48639923 -14.10705078 107.57802307 -14.09718323 106.64212036 C-14.10692673 105.6580722 -14.11667023 104.67402405 -14.12670898 103.66015625 C-14.12119019 102.61407196 -14.11567139 101.56798767 -14.10998535 100.49020386 C-14.10066872 98.22199378 -14.10055736 95.95373139 -14.10857964 93.68551636 C-14.12119515 90.09614896 -14.10993276 86.50755214 -14.09254456 82.91821289 C-14.06582483 76.59407017 -14.06024966 70.27011592 -14.06164551 63.94592285 C-14.06387289 53.82312383 -14.04980961 43.70055789 -14.00605965 33.57785034 C-13.99620737 30.04078983 -14.00494586 26.50409412 -14.01475525 22.96704102 C-14.00861179 20.79963948 -14.0017003 18.63223994 -13.99389648 16.46484375 C-14.00161575 15.48079559 -14.00933502 14.49674744 -14.01728821 13.48287964 C-13.98066399 8.55967865 -13.93220982 5.01054965 -10.625 1.0625 C-7.31505287 -0.59247356 -3.63377 -0.03834335 0 0 Z " fill="#FCCF42" transform="translate(226.625,392.9375)"/>
<path d="M0 0 C11.22 0 22.44 0 34 0 C34.068977 6.15683573 34.12867975 12.31232363 34.16479492 18.46923828 C34.17985469 20.56238353 34.20030671 22.65549736 34.22631836 24.74853516 C34.26282501 27.76212328 34.27975473 30.77529312 34.29296875 33.7890625 C34.30845261 34.72054108 34.32393646 35.65201965 34.33988953 36.61172485 C34.34123235 41.82945823 33.96383025 45.50287559 31 50 C26.67066024 52.81084 21.49253773 52.29587324 16.5 52.25 C15.65824219 52.25773437 14.81648437 52.26546875 13.94921875 52.2734375 C9.59286594 52.2597167 5.87307149 52.23446432 2 50 C-0.13363651 46.79954524 -0.24672228 46.01370564 -0.22705078 42.3449707 C-0.22689972 41.40422195 -0.22674866 40.46347321 -0.22659302 39.49421692 C-0.21627045 38.48163315 -0.20594788 37.46904938 -0.1953125 36.42578125 C-0.1924826 35.38681198 -0.18965271 34.34784271 -0.18673706 33.27738953 C-0.17553282 29.95564303 -0.15042764 26.63416515 -0.125 23.3125 C-0.11497052 21.06185285 -0.10584462 18.81120148 -0.09765625 16.56054688 C-0.0772934 11.04017758 -0.03814473 5.52038983 0 0 Z " fill="#F2C129" transform="translate(137,392)"/>
<path d="M0 0 C11.22 0 22.44 0 34 0 C34.06892471 6.17514326 34.12864305 12.34894828 34.16479492 18.52416992 C34.17986772 20.62415086 34.20032941 22.7241004 34.22631836 24.82397461 C34.26276754 27.84496824 34.27974159 30.86554511 34.29296875 33.88671875 C34.30845261 34.82335861 34.32393646 35.75999847 34.33988953 36.72502136 C34.34115841 41.65588232 34.22353061 45.0015681 31 49 C27.35785643 52.64214357 21.54841555 51.4128281 16.625 51.4375 C15.47515625 51.47037109 14.3253125 51.50324219 13.140625 51.53710938 C12.03460938 51.54419922 10.92859375 51.55128906 9.7890625 51.55859375 C8.26853271 51.57877563 8.26853271 51.57877563 6.71728516 51.59936523 C4 51 4 51 1.66259766 49.12451172 C-0.76337268 44.56539741 -0.49772645 40.5352052 -0.390625 35.44921875 C-0.38496521 34.43527542 -0.37930542 33.42133209 -0.37347412 32.37666321 C-0.35112998 29.14645664 -0.30093598 25.91736983 -0.25 22.6875 C-0.22993252 20.49415667 -0.21168218 18.30079592 -0.1953125 16.10742188 C-0.15467749 10.73750553 -0.07638091 5.37000222 0 0 Z " fill="#F2C128" transform="translate(137,273)"/>
<path d="M0 0 C11.22 0 22.44 0 34 0 C34.09182229 6.47857262 34.17146446 12.95488888 34.21972656 19.43359375 C34.23984419 21.6374476 34.26714172 23.84124807 34.30175781 26.04492188 C34.35026833 29.21237356 34.37296736 32.37911968 34.390625 35.546875 C34.41127014 36.53242371 34.43191528 37.51797241 34.45318604 38.53338623 C34.45542551 45.35765876 34.45542551 45.35765876 32.16308594 48.59082031 C27.29935817 51.75937976 22.22585319 51.2557346 16.625 51.3125 C15.67882812 51.34150391 14.73265625 51.37050781 13.7578125 51.40039062 C9.32788973 51.44083234 6.74688458 51.45622043 2.8984375 49.10546875 C0.208558 46.12224848 -0.1244638 44.55803928 -0.11352539 40.64208984 C-0.11344986 39.74130707 -0.11337433 38.84052429 -0.11329651 37.91244507 C-0.10813522 36.93844757 -0.10297394 35.96445007 -0.09765625 34.9609375 C-0.0962413 33.96494537 -0.09482635 32.96895325 -0.09336853 31.94277954 C-0.08775936 28.75348947 -0.0752053 25.56426894 -0.0625 22.375 C-0.05748618 20.21614685 -0.05292307 18.05729259 -0.04882812 15.8984375 C-0.03863673 10.59890982 -0.01906307 5.29953299 0 0 Z " fill="#F2C127" transform="translate(256,393)"/>
<path d="M0 0 C0.71446289 -0.0087616 1.42892578 -0.01752319 2.16503906 -0.02655029 C4.51690151 -0.04848224 6.86686987 -0.03401601 9.21875 -0.01708984 C10.85872761 -0.02045982 12.49870279 -0.02531396 14.13867188 -0.03158569 C17.57185703 -0.03894853 21.00439072 -0.02827126 24.4375 -0.00488281 C28.83284357 0.02360553 33.22666065 0.00719826 37.62194824 -0.02274513 C41.00727794 -0.04083458 44.39224719 -0.03505273 47.77758789 -0.02210617 C49.39786969 -0.01877666 51.01818448 -0.02284327 52.63842773 -0.03450394 C54.90566356 -0.04724101 57.17044642 -0.02780132 59.4375 0 C60.72591797 0.00397797 62.01433594 0.00795593 63.34179688 0.01205444 C67.57449045 0.80786479 69.05406311 2.33829118 71.71875 5.64697266 C72.6924885 8.72284075 72.24634439 10.32312802 71.71875 13.64697266 C68.99505778 16.53360672 67.32752441 17.55559139 63.37976074 18.1481781 C61.47378113 18.14842735 61.47378113 18.14842735 59.52929688 18.14868164 C58.82458755 18.15408463 58.11987823 18.15948761 57.39381409 18.16505432 C55.07460965 18.17751663 52.75665279 18.16106881 50.4375 18.14306641 C48.81994563 18.14322145 47.20239088 18.14471139 45.58483887 18.1474762 C42.19880704 18.14885906 38.81319937 18.13632141 35.42724609 18.11352539 C31.09274671 18.0851408 26.75895184 18.08787944 22.42440033 18.1006155 C19.08544933 18.1075793 15.74666041 18.09977545 12.4077301 18.08735847 C10.80978518 18.08285076 9.21182281 18.08250123 7.61387634 18.08642387 C5.37829076 18.08934306 3.14366698 18.07279685 0.90820312 18.05102539 C-0.36244995 18.04562241 -1.63310303 18.04021942 -2.94226074 18.03465271 C-6.81988383 17.58443349 -9.50113307 16.42708959 -12.28125 13.64697266 C-12.99235461 6.53592654 -12.99235461 6.53592654 -10.20361328 3.04971313 C-6.54109786 0.03842631 -4.69655987 0.01450054 0 0 Z " fill="#E5563C" transform="translate(226.28125,127.35302734375)"/>
<path d="M0 0 C0.72407043 -0.00700928 1.44814087 -0.01401855 2.19415283 -0.02124023 C4.58368476 -0.03882113 6.97202864 -0.02719697 9.36157227 -0.01367188 C11.02539802 -0.01636708 12.68922224 -0.02024974 14.3530426 -0.02526855 C17.83919275 -0.03116394 21.32493272 -0.02260076 24.81103516 -0.00390625 C29.27459397 0.01886597 33.7371898 0.00577203 38.20071316 -0.01819611 C41.63661418 -0.03266835 45.07228791 -0.02804133 48.50819588 -0.01768494 C50.15359677 -0.01502065 51.79901845 -0.01827693 53.44439507 -0.02760315 C55.74733783 -0.03779075 58.04873456 -0.02223843 60.3515625 0 C62.3153611 0.00477356 62.3153611 0.00477356 64.3188324 0.00964355 C68.31673721 0.60312225 69.99099936 1.58743939 72.74047852 4.51757812 C73.58624966 9.84593633 73.58624966 9.84593633 72.74047852 12.51757812 C70.07579162 15.8262596 68.59621896 17.35668599 64.36352539 18.15249634 C63.07510742 18.1564743 61.78668945 18.16045227 60.45922852 18.16455078 C59.74476563 18.17331238 59.03030273 18.18207397 58.29418945 18.19110107 C55.94232701 18.21303302 53.59235865 18.19856679 51.24047852 18.18164062 C49.6005009 18.1850106 47.96052572 18.18986474 46.32055664 18.19613647 C42.88737148 18.20349931 39.4548378 18.19282204 36.02172852 18.16943359 C31.62638495 18.14094526 27.23256786 18.15735252 22.83728027 18.18729591 C19.45195057 18.20538536 16.06698133 18.19960351 12.68164062 18.18665695 C11.06135883 18.18332745 9.44104404 18.18739405 7.82080078 18.19905472 C5.55356496 18.21179179 3.2887821 18.1923521 1.02172852 18.16455078 C-0.26668945 18.16057281 -1.55510742 18.15659485 -2.88256836 18.15249634 C-7.11509747 17.35671691 -8.59652125 15.82765124 -11.25952148 12.51757812 C-12.1669029 9.49109478 -11.72385281 7.76789743 -11.25952148 4.51757812 C-8.07861239 0.06483943 -5.28326028 0.01285024 0 0 Z " fill="#E5563C" transform="translate(225.259521484375,59.482421875)"/>
<path d="M0 0 C0.6946637 -0.0049649 1.38932739 -0.00992981 2.1050415 -0.01504517 C4.40223177 -0.02964548 6.69935299 -0.03646503 8.99658203 -0.04199219 C10.59457399 -0.04774518 12.19256593 -0.05350289 13.79055786 -0.05926514 C17.14129966 -0.06976891 20.4920175 -0.07561572 23.84277344 -0.07910156 C28.13241169 -0.08458651 32.42173257 -0.10861699 36.71127129 -0.13707352 C40.01243002 -0.15571363 43.31351248 -0.16090621 46.61471939 -0.16243744 C48.19594178 -0.16546115 49.77716292 -0.17348023 51.35833359 -0.18662262 C53.57246691 -0.20371315 55.78582714 -0.20179603 58 -0.1953125 C59.25892059 -0.19895813 60.51784119 -0.20260376 61.81491089 -0.20635986 C65.6880355 0.22307201 68.35497611 1.38671439 71.12939453 4.16113281 C71.84049914 11.27217893 71.84049914 11.27217893 69.05175781 14.75839233 C65.38924239 17.76967916 63.5447044 17.79360493 58.84814453 17.80810547 C58.13368164 17.81686707 57.41921875 17.82562866 56.68310547 17.83465576 C54.33124302 17.85658771 51.98127467 17.84212148 49.62939453 17.82519531 C47.98941692 17.82856529 46.34944174 17.83341943 44.70947266 17.83969116 C41.2762875 17.847054 37.84375381 17.83637673 34.41064453 17.81298828 C30.01530096 17.78449994 25.62148388 17.80090721 21.22619629 17.8308506 C17.84086659 17.84894005 14.45589734 17.8431582 11.07055664 17.83021164 C9.45027484 17.82688213 7.82996006 17.83094873 6.2097168 17.84260941 C3.94248097 17.85534648 1.67769812 17.83590679 -0.58935547 17.80810547 C-1.87777344 17.8041275 -3.16619141 17.80014954 -4.49365234 17.79605103 C-8.72664773 17.00018393 -10.21011113 15.47438885 -12.87060547 12.16113281 C-13.70125551 9.17735044 -13.27982886 7.33261408 -12.87060547 4.16113281 C-9.77260819 -0.41210127 -5.07365238 0.02755277 0 0 Z " fill="#E5563C" transform="translate(226.87060546875,93.8388671875)"/>
<path d="M0 0 C8.25 0 16.5 0 25 0 C25 16.83 25 33.66 25 51 C18.4 51.33 11.8 51.66 5 52 C3.515 52.495 3.515 52.495 2 53 C1.67 53.99 1.34 54.98 1 56 C0.67 56 0.34 56 0 56 C0 37.52 0 19.04 0 0 Z " fill="#606267" transform="translate(94,222)"/>
<path d="M0 0 C0.89110474 -0.00478363 1.78220947 -0.00956726 2.70031738 -0.01449585 C4.57968924 -0.01789022 6.4591205 -0.00872012 8.33837891 0.01220703 C11.21000198 0.03898094 14.07771679 0.01244539 16.94921875 -0.01953125 C18.77865443 -0.01622707 20.60808769 -0.00982066 22.4375 0 C23.29283325 -0.01012115 24.1481665 -0.02024231 25.02941895 -0.03067017 C29.37798915 0.05453933 31.19996907 0.26898703 34.76367188 2.98291016 C36.71875 5.6640625 36.71875 5.6640625 37.28125 9.2265625 C36.63788721 13.15822401 35.87426602 14.31996489 32.71875 16.6640625 C28.9592755 17.91722067 25.42593722 17.8457889 21.5078125 17.8671875 C20.70266205 17.87288757 19.8975116 17.87858765 19.06796265 17.88446045 C17.36498322 17.89390186 15.6619856 17.90044102 13.95898438 17.90429688 C11.36035127 17.91400051 8.76250997 17.94503034 6.1640625 17.9765625 C4.50781719 17.98309317 2.85156623 17.98834339 1.1953125 17.9921875 C0.42120026 18.0045343 -0.35291199 18.0168811 -1.15048218 18.02960205 C-6.98519824 18.0056382 -10.19644848 16.74886402 -14.28125 12.6640625 C-14.83352282 8.48256828 -14.83946228 6.43489375 -12.33398438 2.97509766 C-8.16510548 -0.18090103 -5.09782572 -0.06032255 0 0 Z " fill="#75767B" transform="translate(142.28125,477.3359375)"/>
<path d="M0 0 C0.8065654 -0.00570007 1.6131308 -0.01140015 2.44413757 -0.01727295 C4.15309333 -0.02672695 5.86206735 -0.03325852 7.57104492 -0.03710938 C10.17854916 -0.0467982 12.78525953 -0.07781 15.39257812 -0.109375 C17.05338074 -0.11590685 18.71418899 -0.12115661 20.375 -0.125 C21.1522493 -0.1373468 21.9294986 -0.1496936 22.7303009 -0.16241455 C28.57755264 -0.13850483 31.79287429 1.10928054 35.88671875 5.203125 C36.43899157 9.38461922 36.44493103 11.43229375 33.93945312 14.89208984 C29.77057423 18.04808853 26.70329447 17.92751005 21.60546875 17.8671875 C20.71436401 17.87197113 19.82325928 17.87675476 18.90515137 17.88168335 C17.02577951 17.88507772 15.14634825 17.87590762 13.26708984 17.85498047 C10.39546677 17.82820656 7.52775196 17.85474211 4.65625 17.88671875 C2.82681432 17.88341457 0.99738106 17.87700816 -0.83203125 17.8671875 C-1.6873645 17.87730865 -2.54269775 17.88742981 -3.4239502 17.89785767 C-7.79576424 17.81219271 -9.58948834 17.60858512 -13.15429688 14.84912109 C-15.11328125 12.203125 -15.11328125 12.203125 -15.73828125 9.203125 C-14.91258691 5.23979217 -13.17886694 3.75777974 -10.11328125 1.203125 C-6.93315062 -0.38694031 -3.49357468 0.01895423 0 0 Z " fill="#77777B" transform="translate(143.11328125,357.796875)"/>
<path d="M0 0 C0.89347641 -0.0038269 1.78695282 -0.00765381 2.70750427 -0.01159668 C4.59106578 -0.01431192 6.47466525 -0.00697793 8.3581543 0.00976562 C11.24027459 0.03120671 14.11990942 0.00993854 17.00195312 -0.015625 C18.83464091 -0.01298215 20.66732715 -0.00785805 22.5 0 C23.79074181 -0.01214539 23.79074181 -0.01214539 25.1075592 -0.02453613 C28.93987858 0.03553315 31.02940791 0.07075953 34.22241211 2.31835938 C35.9810874 4.98179009 36.20563058 7.27151633 36.3125 10.43359375 C35.28137226 13.87282106 33.47237811 15.31061382 30.68359375 17.53125 C27.65994676 18.25997245 24.72023877 18.23294712 21.62109375 18.1953125 C20.31773071 18.20248795 20.31773071 18.20248795 18.98803711 18.20980835 C17.15574324 18.21320225 15.3233884 18.20403544 13.49121094 18.18310547 C10.69198156 18.15633023 7.89676142 18.18286803 5.09765625 18.21484375 C3.31379326 18.21153956 1.52993276 18.20513313 -0.25390625 18.1953125 C-1.50409546 18.21049423 -1.50409546 18.21049423 -2.77954102 18.22598267 C-7.13641264 18.13843125 -8.81670096 17.92944131 -12.34130859 15.12084961 C-14.26678635 12.59630788 -15.00319847 11.57689861 -14.94140625 8.46875 C-14.31640625 4.53125 -14.31640625 4.53125 -12.35961914 2.31835938 C-8.17081581 -0.14149144 -4.77567017 -0.04504319 0 0 Z " fill="#75767B" transform="translate(262.31640625,477.46875)"/>
<path d="M0 0 C0.33 0 0.66 0 1 0 C1.00238835 0.84667866 1.00477671 1.69335732 1.00723743 2.5656929 C1.06633966 23.15478942 1.14185901 43.74376842 1.23571491 64.33273697 C1.28070563 74.28935946 1.3201127 84.24594593 1.34643555 94.20263672 C1.36938913 102.8795619 1.40275749 111.55637337 1.44870156 120.23320842 C1.47266947 124.82874036 1.49137482 129.42415944 1.49761391 134.0197525 C1.50364867 138.34374395 1.52358994 142.66744647 1.55427551 146.9913311 C1.56308162 148.57961206 1.56677301 150.16793073 1.56500816 151.75623512 C1.56336063 153.92280725 1.58000864 156.08849311 1.60127258 158.25494385 C1.60588155 159.46802341 1.61049051 160.68110298 1.61523914 161.93094254 C2.03657712 165.29175857 2.66094081 166.60346327 5 169 C5.99 169.66 6.98 170.32 8 171 C7.195625 171.45375 6.39125 171.9075 5.5625 172.375 C2.91143428 173.74725665 2.91143428 173.74725665 2 176 C1.89653944 177.41877032 1.85355162 178.84219002 1.84178162 180.26467896 C1.8319928 181.15932861 1.82220398 182.05397827 1.81211853 182.97573853 C1.80636307 183.95972626 1.8006076 184.94371399 1.79467773 185.95751953 C1.78477814 186.99169006 1.77487854 188.0258606 1.76467896 189.09136963 C1.73300162 192.52182701 1.70828189 195.95229827 1.68359375 199.3828125 C1.66302961 201.75650398 1.64203328 204.13019175 1.62062073 206.50387573 C1.56534433 212.76085412 1.51595963 219.01786587 1.46777344 225.27490234 C1.41759902 231.65595478 1.3618918 238.03695861 1.30664062 244.41796875 C1.19899096 256.94527072 1.09737338 269.47261416 1 282 C0.67 282 0.34 282 0 282 C0 188.94 0 95.88 0 0 Z " fill="#D7875A" transform="translate(93,222)"/>
<path d="M0 0 C0.33 0 0.66 0 1 0 C1.00238835 0.55806965 1.00477671 1.1161393 1.00723743 1.69112015 C1.06637386 15.27028984 1.14210418 28.84927967 1.23571491 42.42825699 C1.28048195 48.99496489 1.31972421 55.56160983 1.34643555 62.12841797 C1.37240514 68.46329292 1.41276276 74.79792642 1.46318626 81.13265228 C1.47989792 83.55197908 1.49138533 85.97134768 1.49761391 88.39072418 C1.50720809 91.77408792 1.53521203 95.15682789 1.56762695 98.54003906 C1.56619186 99.54488846 1.56475677 100.54973785 1.5632782 101.58503723 C1.57581635 102.50767868 1.58835449 103.43032013 1.60127258 104.38092041 C1.60588155 105.18103672 1.61049051 105.98115303 1.61523914 106.80551529 C1.9211178 109.52375129 1.9211178 109.52375129 5 113 C1.7 113 -1.6 113 -5 113 C-4.35125916 112.39118484 -3.70251831 111.78236969 -3.03411865 111.15510559 C-0.12034773 106.63557822 -0.42735723 102.79184329 -0.45410156 97.51831055 C-0.44376389 96.46419479 -0.43342621 95.41007904 -0.42277527 94.32402039 C-0.39331123 90.84476457 -0.39184728 87.3660896 -0.390625 83.88671875 C-0.37564586 81.47246692 -0.35891928 79.05822534 -0.34051514 76.64399719 C-0.29679996 70.29332004 -0.27683309 63.94278113 -0.26177979 57.59197998 C-0.2422239 51.11006481 -0.20025211 44.62829927 -0.16015625 38.14648438 C-0.08480883 25.43104024 -0.03378337 12.71561901 0 0 Z " fill="#F1CC58" transform="translate(213,399)"/>
<path d="M0 0 C3.875 4.75 3.875 4.75 5 7 C1.7 7 -1.6 7 -5 7 C-4.360625 6.21625 -3.72125 5.4325 -3.0625 4.625 C-1.01857687 2.20460719 -1.01857687 2.20460719 0 0 Z " fill="#7C7A7A" transform="translate(213,505)"/>
<path d="M0 0 C3.465 1.98 3.465 1.98 7 4 C2.25 7.875 2.25 7.875 0 9 C0 6.03 0 3.06 0 0 Z " fill="#666667" transform="translate(94,388)"/>
<path d="M0 0 C-3.66987221 1.22329074 -6.33967822 0.88021006 -10.1875 0.5625 C-11.45980469 0.46066406 -12.73210937 0.35882813 -14.04296875 0.25390625 C-15.01878906 0.17011719 -15.99460937 0.08632813 -17 0 C-17 -0.33 -17 -0.66 -17 -1 C-14.73044814 -1.22185844 -12.45926245 -1.42705515 -10.1875 -1.625 C-8.29064453 -1.79902344 -8.29064453 -1.79902344 -6.35546875 -1.9765625 C-3 -2 -3 -2 0 0 Z " fill="#FAD153" transform="translate(118,393)"/>
</svg>
